# xmcd
#
# Track frame offsets: 
#        150
#        35367
#        69232
#        98485
#        127425
#        162127
#        190022
#        222047
#        252275
#        280962
#
# Disc length: 4271 seconds
#
# Revision: 5
# Processed by: cddbd v1.5.2PL0 Copyright (c) Steve Scherf et al.
# Submitted via: ExactAudioCopyFreeDBPlugin 1.0
#
DISCID=8810ad0a
DTITLE=Various Artist - Discotech Remix Service Issue 35
DYEAR=1995
DGENRE=Club
TTITLE0=Real McCoy - Come And Get Your Love
TTITLE1=Corona - Try Me Out
TTITLE2=La Bouche - Fallin' In Love
TTITLE3=Imortals - Mortal Kombat
TTITLE4=Loveland - Don't Make Me Wait
TTITLE5=Liz Torres - Set Urself Free (Explicit Lyrics)
TTITLE6=Hanna Haze - Baby X 3
TTITLE7=2 Unlimited - Nothing Like The Rain
TTITLE8=Ken Laszlo - Tonight
TTITLE9=Dead Or Alive - Something In My House
EXTD=
EXTT0=
EXTT1=
EXTT2=
EXTT3=
EXTT4=
EXTT5=
EXTT6=
EXTT7=
EXTT8=
EXTT9=
PLAYORDER=
